<svg xmlns="http://www.w3.org/2000/svg" xmlns:xlink="http://www.w3.org/1999/xlink" contentStyleType="text/css" height="142px" preserveAspectRatio="none" style="width:631px;height:142px;background:#FFFFFF;" version="1.1" viewBox="0 0 631 142" width="631px" zoomAndPan="magnify"><defs/><g><!--cluster 7ff6e7470777aa1c3b0213ca43406332--><g id="cluster_7ff6e7470777aa1c3b0213ca43406332"><path d="M8.5,6 L140.5,6 A3.75,3.75 0 0 1 143,8.5 L150,28.2969 L150.5,28.2969 A2.5,2.5 0 0 1 153,30.7969 L153,133.39 A2.5,2.5 0 0 1 150.5,135.89 L8.5,135.89 A2.5,2.5 0 0 1 6,133.39 L6,8.5 A2.5,2.5 0 0 1 8.5,6 " fill="none" style="stroke:#000000;stroke-width:1.5;"/><line style="stroke:#000000;stroke-width:1.5;" x1="6" x2="150" y1="28.2969" y2="28.2969"/><text fill="#000000" font-family="sans-serif" font-size="14" font-weight="bold" lengthAdjust="spacing" textLength="131" x="10" y="20.9951">dts_test_project/</text></g><!--cluster 58642bbf15191953bb12ea50b32536e2--><g id="cluster_58642bbf15191953bb12ea50b32536e2"><path d="M179.5,6 L269.5,6 A3.75,3.75 0 0 1 272,8.5 L279,28.2969 L302.5,28.2969 A2.5,2.5 0 0 1 305,30.7969 L305,133.39 A2.5,2.5 0 0 1 302.5,135.89 L179.5,135.89 A2.5,2.5 0 0 1 177,133.39 L177,8.5 A2.5,2.5 0 0 1 179.5,6 " fill="none" style="stroke:#000000;stroke-width:1.5;"/><line style="stroke:#000000;stroke-width:1.5;" x1="177" x2="279" y1="28.2969" y2="28.2969"/><text fill="#000000" font-family="sans-serif" font-size="14" font-weight="bold" lengthAdjust="spacing" textLength="89" x="181" y="20.9951">customers/</text></g><!--cluster 0edbc552e0df94371f8b962f157e7bd2--><g id="cluster_0edbc552e0df94371f8b962f157e7bd2"><path d="M331.5,6 L459.5,6 A3.75,3.75 0 0 1 462,8.5 L469,28.2969 L469.5,28.2969 A2.5,2.5 0 0 1 472,30.7969 L472,133.39 A2.5,2.5 0 0 1 469.5,135.89 L331.5,135.89 A2.5,2.5 0 0 1 329,133.39 L329,8.5 A2.5,2.5 0 0 1 331.5,6 " fill="none" style="stroke:#000000;stroke-width:1.5;"/><line style="stroke:#000000;stroke-width:1.5;" x1="329" x2="469" y1="28.2969" y2="28.2969"/><text fill="#000000" font-family="sans-serif" font-size="14" font-weight="bold" lengthAdjust="spacing" textLength="127" x="333" y="20.9951">dts_multi_type2/</text></g><!--cluster e335fd90cd84da916ee91d305cfa8b1c--><g id="cluster_e335fd90cd84da916ee91d305cfa8b1c"><path d="M498.5,6 L603.5,6 A3.75,3.75 0 0 1 606,8.5 L613,28.2969 L621.5,28.2969 A2.5,2.5 0 0 1 624,30.7969 L624,133.39 A2.5,2.5 0 0 1 621.5,135.89 L498.5,135.89 A2.5,2.5 0 0 1 496,133.39 L496,8.5 A2.5,2.5 0 0 1 498.5,6 " fill="none" style="stroke:#000000;stroke-width:1.5;"/><line style="stroke:#000000;stroke-width:1.5;" x1="496" x2="613" y1="28.2969" y2="28.2969"/><text fill="#000000" font-family="sans-serif" font-size="14" font-weight="bold" lengthAdjust="spacing" textLength="104" x="500" y="20.9951">dts_test_app/</text></g><!--entity ea6bab263a6cb13e15a1d5adee56ec18--><g id="elem_ea6bab263a6cb13e15a1d5adee56ec18"><rect fill="#F1F1F1" height="78.8906" rx="2.5" ry="2.5" style="stroke:#181818;stroke-width:0.5;" width="70" x="44" y="41"/><rect fill="#F1F1F1" height="10" style="stroke:#181818;stroke-width:0.5;" width="15" x="94" y="46"/><rect fill="#F1F1F1" height="2" style="stroke:#181818;stroke-width:0.5;" width="4" x="92" y="48"/><rect fill="#F1F1F1" height="2" style="stroke:#181818;stroke-width:0.5;" width="4" x="92" y="52"/><text fill="#000000" font-family="sans-serif" font-size="14" font-weight="bold" lengthAdjust="spacing" textLength="30" x="59" y="73.9951">urls</text><text fill="#000000" font-family="sans-serif" font-size="14" lengthAdjust="spacing" textLength="4" x="59" y="90.292">&#160;</text><text fill="#000000" font-family="sans-serif" font-size="14" lengthAdjust="spacing" textLength="4" x="59" y="106.5889">&#160;</text></g><!--entity 56abe24a6df9a92e08ed488532202d39--><g id="elem_56abe24a6df9a92e08ed488532202d39"><rect fill="#F1F1F1" height="78.8906" rx="2.5" ry="2.5" style="stroke:#181818;stroke-width:0.5;" width="97" x="192.5" y="41"/><rect fill="#F1F1F1" height="10" style="stroke:#181818;stroke-width:0.5;" width="15" x="269.5" y="46"/><rect fill="#F1F1F1" height="2" style="stroke:#181818;stroke-width:0.5;" width="4" x="267.5" y="48"/><rect fill="#F1F1F1" height="2" style="stroke:#181818;stroke-width:0.5;" width="4" x="267.5" y="52"/><text fill="#000000" font-family="sans-serif" font-size="14" font-weight="bold" lengthAdjust="spacing" textLength="57" x="207.5" y="73.9951">models</text><text fill="#000000" font-family="sans-serif" font-size="14" lengthAdjust="spacing" textLength="4" x="207.5" y="90.292">&#160;</text><text fill="#000000" font-family="sans-serif" font-size="14" lengthAdjust="spacing" textLength="4" x="207.5" y="106.5889">&#160;</text></g><!--entity da353249a5dcd9c1e402f8944197eb46--><g id="elem_da353249a5dcd9c1e402f8944197eb46"><rect fill="#F1F1F1" height="78.8906" rx="2.5" ry="2.5" style="stroke:#181818;stroke-width:0.5;" width="97" x="351.5" y="41"/><rect fill="#F1F1F1" height="10" style="stroke:#181818;stroke-width:0.5;" width="15" x="428.5" y="46"/><rect fill="#F1F1F1" height="2" style="stroke:#181818;stroke-width:0.5;" width="4" x="426.5" y="48"/><rect fill="#F1F1F1" height="2" style="stroke:#181818;stroke-width:0.5;" width="4" x="426.5" y="52"/><text fill="#000000" font-family="sans-serif" font-size="14" font-weight="bold" lengthAdjust="spacing" textLength="57" x="366.5" y="73.9951">models</text><text fill="#000000" font-family="sans-serif" font-size="14" lengthAdjust="spacing" textLength="4" x="366.5" y="90.292">&#160;</text><text fill="#000000" font-family="sans-serif" font-size="14" lengthAdjust="spacing" textLength="4" x="366.5" y="106.5889">&#160;</text></g><!--entity 71e123b48a086b7e862d228d3b2a38b5--><g id="elem_71e123b48a086b7e862d228d3b2a38b5"><rect fill="#F1F1F1" height="78.8906" rx="2.5" ry="2.5" style="stroke:#181818;stroke-width:0.5;" width="97" x="511.5" y="41"/><rect fill="#F1F1F1" height="10" style="stroke:#181818;stroke-width:0.5;" width="15" x="588.5" y="46"/><rect fill="#F1F1F1" height="2" style="stroke:#181818;stroke-width:0.5;" width="4" x="586.5" y="48"/><rect fill="#F1F1F1" height="2" style="stroke:#181818;stroke-width:0.5;" width="4" x="586.5" y="52"/><text fill="#000000" font-family="sans-serif" font-size="14" font-weight="bold" lengthAdjust="spacing" textLength="57" x="526.5" y="73.9951">models</text><text fill="#000000" font-family="sans-serif" font-size="14" lengthAdjust="spacing" textLength="4" x="526.5" y="90.292">&#160;</text><text fill="#000000" font-family="sans-serif" font-size="14" lengthAdjust="spacing" textLength="4" x="526.5" y="106.5889">&#160;</text></g><!--SRC=[XT1DJiDG30JWVKuHTPaDp_RxFGj2bVtiL8MaYPfKW11t9xGBLAaI5vXlPdWOflVn-74y7PgPwniVhDtfkknNMzRzV9vUhQvFkvQNDlLzjEIJIoanGoLn25JPatUH2DklfaxZF9tijBR6KLWm4iSgG0Q1GGEhMOXM8RVFJTTTpiFITKtJl3JVVtgzBEiqsdcviI57Zo8z12XG0ea06WSdX86YtRCXiXXwZjeNBcWkc_gS0o4wL2fNTfpK7i6_iyVBi1xtw-TiUEETgTGGjgWjqbE2Fak9kDL9baJlUMNQA5yuQDLImRp3FXVleIGJ7__bhw_pFDzi8mgz5bSrU-K2qQo0aWkrvonGx-m41aZYCxiS9LcEg8XPIP0fItXW_m00]--></g></svg>