<svg xmlns="http://www.w3.org/2000/svg" xmlns:xlink="http://www.w3.org/1999/xlink" contentStyleType="text/css" height="717px" preserveAspectRatio="none" style="width:1610px;height:717px;background:#FFFFFF;" version="1.1" viewBox="0 0 1610 717" width="1610px" zoomAndPan="magnify"><defs/><g><!--cluster d77d5e503ad1439f585ac494268b351b--><g id="cluster_d77d5e503ad1439f585ac494268b351b"><polygon fill="none" points="16,32.29,26,22.29,468,22.29,468,599.26,458,609.26,16,609.26,16,32.29" style="stroke:#181818;stroke-width:1.0;"/><line style="stroke:#181818;stroke-width:1.0;" x1="458" x2="468" y1="32.29" y2="22.29"/><line style="stroke:#181818;stroke-width:1.0;" x1="16" x2="458" y1="32.29" y2="32.29"/><line style="stroke:#181818;stroke-width:1.0;" x1="458" x2="458" y1="32.29" y2="609.26"/><text fill="#000000" font-family="sans-serif" font-size="14" font-weight="bold" lengthAdjust="spacing" textLength="21" x="227.5" y="48.2851">Db</text></g><!--cluster 2567a5ec9705eb7ac2c984033e06189d--><g id="cluster_2567a5ec9705eb7ac2c984033e06189d"><polygon fill="none" points="1092,40.44,1102,30.44,1542,30.44,1542,599.26,1532,609.26,1092,609.26,1092,40.44" style="stroke:#181818;stroke-width:1.0;"/><line style="stroke:#181818;stroke-width:1.0;" x1="1532" x2="1542" y1="40.44" y2="30.44"/><line style="stroke:#181818;stroke-width:1.0;" x1="1092" x2="1532" y1="40.44" y2="40.44"/><line style="stroke:#181818;stroke-width:1.0;" x1="1532" x2="1532" y1="40.44" y2="609.26"/><text fill="#000000" font-family="sans-serif" font-size="14" font-weight="bold" lengthAdjust="spacing" textLength="35" x="1295.5" y="56.4351">Web</text></g><!--cluster 815f91145cd6276d6aa7803466ddc2de--><g id="cluster_815f91145cd6276d6aa7803466ddc2de"><polygon fill="none" points="554,16,564,6,1006,6,1006,599.26,996,609.26,554,609.26,554,16" style="stroke:#181818;stroke-width:1.0;"/><line style="stroke:#181818;stroke-width:1.0;" x1="996" x2="1006" y1="16" y2="6"/><line style="stroke:#181818;stroke-width:1.0;" x1="554" x2="996" y1="16" y2="16"/><line style="stroke:#181818;stroke-width:1.0;" x1="996" x2="996" y1="16" y2="609.26"/><text fill="#000000" font-family="sans-serif" font-size="14" font-weight="bold" lengthAdjust="spacing" textLength="157" x="697.5" y="31.9951">Django-tenants-test</text></g><!--entity da404c7886cf96d0280162348d39afec--><g id="elem_da404c7886cf96d0280162348d39afec"><rect fill="#F1F1F1" height="160.375" rx="2.5" ry="2.5" style="stroke:#181818;stroke-width:0.5;" width="420" x="32" y="62.29"/><rect fill="#F1F1F1" height="10" style="stroke:#181818;stroke-width:0.5;" width="15" x="432" y="67.29"/><rect fill="#F1F1F1" height="2" style="stroke:#181818;stroke-width:0.5;" width="4" x="430" y="69.29"/><rect fill="#F1F1F1" height="2" style="stroke:#181818;stroke-width:0.5;" width="4" x="430" y="73.29"/><text fill="#000000" font-family="sans-serif" font-size="14" font-weight="bold" lengthAdjust="spacing" textLength="147" x="47" y="95.2851">django_tenants_db</text><text fill="#000000" font-family="sans-serif" font-size="14" lengthAdjust="spacing" textLength="4" x="47" y="111.582">&#160;</text><text fill="#000000" font-family="sans-serif" font-size="14" lengthAdjust="spacing" textLength="113" x="47" y="127.8789">image: postgres</text><text fill="#000000" font-family="sans-serif" font-size="14" lengthAdjust="spacing" textLength="337" x="47" y="144.1757">environment: POSTGRES_USER=django_tenants</text><text fill="#000000" font-family="sans-serif" font-size="14" lengthAdjust="spacing" textLength="380" x="47" y="160.4726">environment: POSTGRES_PASSWORD=django_tenants</text><text fill="#000000" font-family="sans-serif" font-size="14" lengthAdjust="spacing" textLength="320" x="47" y="176.7695">environment: POSTGRES_DB=django_tenants</text><text fill="#000000" font-family="sans-serif" font-size="14" lengthAdjust="spacing" textLength="265" x="47" y="193.0664">environment: DATABASE_PORT=5433</text><text fill="#000000" font-family="sans-serif" font-size="14" lengthAdjust="spacing" textLength="4" x="47" y="209.3632">&#160;</text></g><!--entity 43bb4cb118845f08e05e758d93c57c6e--><g id="elem_43bb4cb118845f08e05e758d93c57c6e"><ellipse cx="365" cy="328.97" fill="#F1F1F1" rx="8" ry="8" style="stroke:#181818;stroke-width:0.5;"/><text fill="#000000" font-family="sans-serif" font-size="14" lengthAdjust="spacing" textLength="36" x="347" y="358.9651">5432</text></g><!--entity d5baecb173d637b4e1f821d6b00b6f89--><g id="elem_d5baecb173d637b4e1f821d6b00b6f89"><rect fill="#F1F1F1" height="39.2969" rx="2.5" ry="2.5" style="stroke:#181818;stroke-width:0.5;" width="189" x="147.5" y="553.97"/><polygon fill="#F1F1F1" points="319.5,558.97,319.5,572.97,331.5,572.97,331.5,564.97,325.5,558.97,319.5,558.97" style="stroke:#181818;stroke-width:0.5;"/><line style="stroke:#181818;stroke-width:0.5;" x1="325.5" x2="325.5" y1="558.97" y2="564.97"/><line style="stroke:#181818;stroke-width:0.5;" x1="331.5" x2="325.5" y1="564.97" y2="564.97"/><text fill="#000000" font-family="sans-serif" font-size="14" lengthAdjust="spacing" textLength="159" x="157.5" y="579.9651">/var/lib/postgresql/data</text></g><!--entity 712e62727bdd6a1240840b5bbcb5f8da--><g id="elem_712e62727bdd6a1240840b5bbcb5f8da"><rect fill="#F1F1F1" height="144.0781" rx="2.5" ry="2.5" style="stroke:#181818;stroke-width:0.5;" width="418" x="1108" y="70.44"/><rect fill="#F1F1F1" height="10" style="stroke:#181818;stroke-width:0.5;" width="15" x="1506" y="75.44"/><rect fill="#F1F1F1" height="2" style="stroke:#181818;stroke-width:0.5;" width="4" x="1504" y="77.44"/><rect fill="#F1F1F1" height="2" style="stroke:#181818;stroke-width:0.5;" width="4" x="1504" y="81.44"/><text fill="#000000" font-family="sans-serif" font-size="14" font-weight="bold" lengthAdjust="spacing" textLength="161" x="1123" y="103.4351">django_tenants_web</text><text fill="#000000" font-family="sans-serif" font-size="14" lengthAdjust="spacing" textLength="4" x="1123" y="119.732">&#160;</text><text fill="#000000" font-family="sans-serif" font-size="14" lengthAdjust="spacing" textLength="335" x="1123" y="136.0289">environment: DATABASE_USER=django_tenants</text><text fill="#000000" font-family="sans-serif" font-size="14" lengthAdjust="spacing" textLength="378" x="1123" y="152.3257">environment: DATABASE_PASSWORD=django_tenants</text><text fill="#000000" font-family="sans-serif" font-size="14" lengthAdjust="spacing" textLength="318" x="1123" y="168.6226">environment: DATABASE_DB=django_tenants</text><text fill="#000000" font-family="sans-serif" font-size="14" lengthAdjust="spacing" textLength="247" x="1123" y="184.9195">environment: DATABASE_HOST=db</text><text fill="#000000" font-family="sans-serif" font-size="14" lengthAdjust="spacing" textLength="4" x="1123" y="201.2164">&#160;</text></g><!--entity 3b656adaf13d7ac518f1b07b0f10bb34--><g id="elem_3b656adaf13d7ac518f1b07b0f10bb34"><ellipse cx="1439" cy="328.97" fill="#F1F1F1" rx="8" ry="8" style="stroke:#181818;stroke-width:0.5;"/><text fill="#000000" font-family="sans-serif" font-size="14" lengthAdjust="spacing" textLength="36" x="1421" y="358.9651">8088</text></g><!--entity 4ae8434c535c76df893919c2b9c9c766--><g id="elem_4ae8434c535c76df893919c2b9c9c766"><rect fill="#F1F1F1" height="39.2969" rx="2.5" ry="2.5" style="stroke:#181818;stroke-width:0.5;" width="70" x="1227" y="553.97"/><polygon fill="#F1F1F1" points="1280,558.97,1280,572.97,1292,572.97,1292,564.97,1286,558.97,1280,558.97" style="stroke:#181818;stroke-width:0.5;"/><line style="stroke:#181818;stroke-width:0.5;" x1="1286" x2="1286" y1="558.97" y2="564.97"/><line style="stroke:#181818;stroke-width:0.5;" x1="1292" x2="1286" y1="564.97" y2="564.97"/><text fill="#000000" font-family="sans-serif" font-size="14" lengthAdjust="spacing" textLength="40" x="1237" y="579.9651">/code</text></g><!--entity dca1fb4971ec22e45b398666e4e42319--><g id="elem_dca1fb4971ec22e45b398666e4e42319"><rect fill="#F1F1F1" height="192.9688" rx="2.5" ry="2.5" style="stroke:#181818;stroke-width:0.5;" width="420" x="570" y="46"/><rect fill="#F1F1F1" height="10" style="stroke:#181818;stroke-width:0.5;" width="15" x="970" y="51"/><rect fill="#F1F1F1" height="2" style="stroke:#181818;stroke-width:0.5;" width="4" x="968" y="53"/><rect fill="#F1F1F1" height="2" style="stroke:#181818;stroke-width:0.5;" width="4" x="968" y="57"/><text fill="#000000" font-family="sans-serif" font-size="14" font-weight="bold" lengthAdjust="spacing" textLength="156" x="585" y="78.9951">django-tenants-test</text><text fill="#000000" font-family="sans-serif" font-size="14" lengthAdjust="spacing" textLength="4" x="585" y="95.292">&#160;</text><text fill="#000000" font-family="sans-serif" font-size="14" lengthAdjust="spacing" textLength="337" x="585" y="111.5889">environment: POSTGRES_USER=django_tenants</text><text fill="#000000" font-family="sans-serif" font-size="14" lengthAdjust="spacing" textLength="380" x="585" y="127.8857">environment: POSTGRES_PASSWORD=django_tenants</text><text fill="#000000" font-family="sans-serif" font-size="14" lengthAdjust="spacing" textLength="335" x="585" y="144.1826">environment: DATABASE_USER=django_tenants</text><text fill="#000000" font-family="sans-serif" font-size="14" lengthAdjust="spacing" textLength="378" x="585" y="160.4795">environment: DATABASE_PASSWORD=django_tenants</text><text fill="#000000" font-family="sans-serif" font-size="14" lengthAdjust="spacing" textLength="318" x="585" y="176.7764">environment: DATABASE_DB=django_tenants</text><text fill="#000000" font-family="sans-serif" font-size="14" lengthAdjust="spacing" textLength="247" x="585" y="193.0732">environment: DATABASE_HOST=db</text><text fill="#000000" font-family="sans-serif" font-size="14" lengthAdjust="spacing" textLength="72" x="585" y="209.3701">restart: no</text><text fill="#000000" font-family="sans-serif" font-size="14" lengthAdjust="spacing" textLength="4" x="585" y="225.667">&#160;</text></g><!--entity 77f67177125d86cd65022fe3226b748f--><g id="elem_77f67177125d86cd65022fe3226b748f"><ellipse cx="933" cy="328.97" fill="#F1F1F1" rx="8" ry="8" style="stroke:#181818;stroke-width:0.5;"/><text fill="#000000" font-family="sans-serif" font-size="14" lengthAdjust="spacing" textLength="36" x="915" y="358.9651">8080</text></g><!--entity 347d2669b673f390c7a7435cc1adde9d--><g id="elem_347d2669b673f390c7a7435cc1adde9d"><rect fill="#F1F1F1" height="39.2969" rx="2.5" ry="2.5" style="stroke:#181818;stroke-width:0.5;" width="70" x="862" y="553.97"/><polygon fill="#F1F1F1" points="915,558.97,915,572.97,927,572.97,927,564.97,921,558.97,915,558.97" style="stroke:#181818;stroke-width:0.5;"/><line style="stroke:#181818;stroke-width:0.5;" x1="921" x2="921" y1="558.97" y2="564.97"/><line style="stroke:#181818;stroke-width:0.5;" x1="927" x2="921" y1="564.97" y2="564.97"/><text fill="#000000" font-family="sans-serif" font-size="14" lengthAdjust="spacing" textLength="40" x="872" y="579.9651">/code</text></g><!--entity c133dae7a45c449457a1a9b2344d3ffc--><g id="elem_c133dae7a45c449457a1a9b2344d3ffc"><ellipse cx="511" cy="463.97" fill="#F1F1F1" rx="8" ry="8" style="stroke:#181818;stroke-width:0.5;"/><text fill="#000000" font-family="sans-serif" font-size="14" lengthAdjust="spacing" textLength="36" x="493" y="493.9651">5433</text></g><!--entity 6b82fe368b2181b8bc2f4a6ba0525a6b--><g id="elem_6b82fe368b2181b8bc2f4a6ba0525a6b"><ellipse cx="1585" cy="463.97" fill="#F1F1F1" rx="8" ry="8" style="stroke:#181818;stroke-width:0.5;"/><text fill="#000000" font-family="sans-serif" font-size="14" lengthAdjust="spacing" textLength="36" x="1567" y="493.9651">8088</text></g><!--entity 600c44c1349e9154dce569ba37e2d70b--><g id="elem_600c44c1349e9154dce569ba37e2d70b"><ellipse cx="1049" cy="463.97" fill="#F1F1F1" rx="8" ry="8" style="stroke:#181818;stroke-width:0.5;"/><text fill="#000000" font-family="sans-serif" font-size="14" lengthAdjust="spacing" textLength="36" x="1031" y="493.9651">8080</text></g><!--entity 8d26c49c05edf1d57b12a478a6e5ce36--><g id="elem_8d26c49c05edf1d57b12a478a6e5ce36"><rect fill="#F1F1F1" height="39.2969" rx="2.5" ry="2.5" style="stroke:#181818;stroke-width:0.5;" width="136" x="174" y="672.26"/><polygon fill="#F1F1F1" points="293,677.26,293,691.26,305,691.26,305,683.26,299,677.26,293,677.26" style="stroke:#181818;stroke-width:0.5;"/><line style="stroke:#181818;stroke-width:0.5;" x1="299" x2="299" y1="677.26" y2="683.26"/><line style="stroke:#181818;stroke-width:0.5;" x1="305" x2="299" y1="683.26" y2="683.26"/><text fill="#000000" font-family="sans-serif" font-size="14" lengthAdjust="spacing" textLength="106" x="184" y="698.2551">./postgres-data</text></g><!--entity 58b9e70b65a77700ba66e9c64d6b9f89--><g id="elem_58b9e70b65a77700ba66e9c64d6b9f89"><rect fill="#F1F1F1" height="39.2969" rx="2.5" ry="2.5" style="stroke:#181818;stroke-width:0.5;" width="34" x="1079" y="672.26"/><polygon fill="#F1F1F1" points="1096,677.26,1096,691.26,1108,691.26,1108,683.26,1102,677.26,1096,677.26" style="stroke:#181818;stroke-width:0.5;"/><line style="stroke:#181818;stroke-width:0.5;" x1="1102" x2="1102" y1="677.26" y2="683.26"/><line style="stroke:#181818;stroke-width:0.5;" x1="1108" x2="1102" y1="683.26" y2="683.26"/><text fill="#000000" font-family="sans-serif" font-size="14" lengthAdjust="spacing" textLength="4" x="1089" y="698.2551">.</text></g><!--link da404c7886cf96d0280162348d39afec to 43bb4cb118845f08e05e758d93c57c6e--><g id="link_da404c7886cf96d0280162348d39afec_43bb4cb118845f08e05e758d93c57c6e"><path codeLine="50" d="M295.06,223.06 C320.8,261.68 348.56,303.31 359.82,320.2 " fill="none" id="da404c7886cf96d0280162348d39afec-43bb4cb118845f08e05e758d93c57c6e" style="stroke:#181818;stroke-width:1.0;"/></g><!--link 43bb4cb118845f08e05e758d93c57c6e to c133dae7a45c449457a1a9b2344d3ffc--><g id="link_43bb4cb118845f08e05e758d93c57c6e_c133dae7a45c449457a1a9b2344d3ffc"><path codeLine="51" d="M373.7,337.89 C399.72,361.6 476.81,431.82 502.53,455.25 " fill="none" id="43bb4cb118845f08e05e758d93c57c6e-c133dae7a45c449457a1a9b2344d3ffc" style="stroke:#181818;stroke-width:1.0;"/></g><!--link d5baecb173d637b4e1f821d6b00b6f89 to 8d26c49c05edf1d57b12a478a6e5ce36--><g id="link_d5baecb173d637b4e1f821d6b00b6f89_8d26c49c05edf1d57b12a478a6e5ce36"><path codeLine="52" d="M242,593.56 C242,615.18 242,650.35 242,671.98 " fill="none" id="d5baecb173d637b4e1f821d6b00b6f89-8d26c49c05edf1d57b12a478a6e5ce36" style="stroke:#181818;stroke-width:1.0;"/><text fill="#000000" font-family="sans-serif" font-size="13" lengthAdjust="spacing" textLength="7" x="243" y="638.3269">z</text></g><!--link da404c7886cf96d0280162348d39afec to d5baecb173d637b4e1f821d6b00b6f89--><g id="link_da404c7886cf96d0280162348d39afec_d5baecb173d637b4e1f821d6b00b6f89"><path codeLine="53" d="M242,222.94 C242,325.19 242,490.43 242,547.48 " fill="none" id="da404c7886cf96d0280162348d39afec-to-d5baecb173d637b4e1f821d6b00b6f89" style="stroke:#181818;stroke-width:1.0;stroke-dasharray:7.0,7.0;"/><polygon fill="#181818" points="242,553.48,246,544.48,242,548.48,238,544.48,242,553.48" style="stroke:#181818;stroke-width:1.0;"/><text fill="#000000" font-family="sans-serif" font-size="13" lengthAdjust="spacing" textLength="23" x="243" y="401.0369">use</text></g><!--link 712e62727bdd6a1240840b5bbcb5f8da to 3b656adaf13d7ac518f1b07b0f10bb34--><g id="link_712e62727bdd6a1240840b5bbcb5f8da_3b656adaf13d7ac518f1b07b0f10bb34"><path codeLine="54" d="M1364.17,214.81 C1391.12,255.57 1421.88,302.08 1433.85,320.19 " fill="none" id="712e62727bdd6a1240840b5bbcb5f8da-3b656adaf13d7ac518f1b07b0f10bb34" style="stroke:#181818;stroke-width:1.0;"/></g><!--link 3b656adaf13d7ac518f1b07b0f10bb34 to 6b82fe368b2181b8bc2f4a6ba0525a6b--><g id="link_3b656adaf13d7ac518f1b07b0f10bb34_6b82fe368b2181b8bc2f4a6ba0525a6b"><path codeLine="55" d="M1447.7,337.89 C1473.72,361.6 1550.81,431.82 1576.53,455.25 " fill="none" id="3b656adaf13d7ac518f1b07b0f10bb34-6b82fe368b2181b8bc2f4a6ba0525a6b" style="stroke:#181818;stroke-width:1.0;"/></g><!--link 4ae8434c535c76df893919c2b9c9c766 to 58b9e70b65a77700ba66e9c64d6b9f89--><g id="link_4ae8434c535c76df893919c2b9c9c766_58b9e70b65a77700ba66e9c64d6b9f89"><path codeLine="56" d="M1234.96,593.56 C1200.6,617.63 1142.29,658.48 1113.35,678.75 " fill="none" id="4ae8434c535c76df893919c2b9c9c766-58b9e70b65a77700ba66e9c64d6b9f89" style="stroke:#181818;stroke-width:1.0;"/><text fill="#000000" font-family="sans-serif" font-size="13" lengthAdjust="spacing" textLength="7" x="1189" y="638.3269">z</text></g><!--link 712e62727bdd6a1240840b5bbcb5f8da to 4ae8434c535c76df893919c2b9c9c766--><g id="link_712e62727bdd6a1240840b5bbcb5f8da_4ae8434c535c76df893919c2b9c9c766"><path codeLine="57" d="M1307.86,214.83 C1294.9,315.88 1272.7231,488.9787 1265.2131,547.5487 " fill="none" id="712e62727bdd6a1240840b5bbcb5f8da-to-4ae8434c535c76df893919c2b9c9c766" style="stroke:#181818;stroke-width:1.0;stroke-dasharray:7.0,7.0;"/><polygon fill="#181818" points="1264.45,553.5,1269.5622,545.0818,1265.0859,548.5406,1261.6271,544.0644,1264.45,553.5" style="stroke:#181818;stroke-width:1.0;"/><text fill="#000000" font-family="sans-serif" font-size="13" lengthAdjust="spacing" textLength="23" x="1286" y="401.0369">use</text></g><!--link dca1fb4971ec22e45b398666e4e42319 to 77f67177125d86cd65022fe3226b748f--><g id="link_dca1fb4971ec22e45b398666e4e42319_77f67177125d86cd65022fe3226b748f"><path codeLine="58" d="M859.41,239.24 C887.35,272.93 914.78,305.99 926.74,320.42 " fill="none" id="dca1fb4971ec22e45b398666e4e42319-77f67177125d86cd65022fe3226b748f" style="stroke:#181818;stroke-width:1.0;"/></g><!--link 77f67177125d86cd65022fe3226b748f to 600c44c1349e9154dce569ba37e2d70b--><g id="link_77f67177125d86cd65022fe3226b748f_600c44c1349e9154dce569ba37e2d70b"><path codeLine="59" d="M939.91,337.89 C960.59,361.6 1021.83,431.82 1042.27,455.25 " fill="none" id="77f67177125d86cd65022fe3226b748f-600c44c1349e9154dce569ba37e2d70b" style="stroke:#181818;stroke-width:1.0;"/></g><!--link 347d2669b673f390c7a7435cc1adde9d to 58b9e70b65a77700ba66e9c64d6b9f89--><g id="link_347d2669b673f390c7a7435cc1adde9d_58b9e70b65a77700ba66e9c64d6b9f89"><path codeLine="60" d="M929.42,593.56 C972.04,618.47 1045.4,661.34 1078.68,680.79 " fill="none" id="347d2669b673f390c7a7435cc1adde9d-58b9e70b65a77700ba66e9c64d6b9f89" style="stroke:#181818;stroke-width:1.0;"/><text fill="#000000" font-family="sans-serif" font-size="13" lengthAdjust="spacing" textLength="7" x="1009" y="638.3269">z</text></g><!--link dca1fb4971ec22e45b398666e4e42319 to 347d2669b673f390c7a7435cc1adde9d--><g id="link_dca1fb4971ec22e45b398666e4e42319_347d2669b673f390c7a7435cc1adde9d"><path codeLine="61" d="M806.11,239.25 C834.26,342.51 875.452,493.5712 890.202,547.6812 " fill="none" id="dca1fb4971ec22e45b398666e4e42319-to-347d2669b673f390c7a7435cc1adde9d" style="stroke:#181818;stroke-width:1.0;stroke-dasharray:7.0,7.0;"/><polygon fill="#181818" points="891.78,553.47,893.2722,543.7348,890.465,548.646,885.5538,545.8388,891.78,553.47" style="stroke:#181818;stroke-width:1.0;"/><text fill="#000000" font-family="sans-serif" font-size="13" lengthAdjust="spacing" textLength="23" x="852" y="401.0369">use</text></g><!--SRC=[pPHFQoD74CNlyoa6dHA3vVvVtGO7lCWaDnlBOGzBC5LTtKR17csioMv8o7VVqbXs9DP9EuT0JYD4zUkgz-jwU7-__lom-cqrt7N3cai_Mz2inqtF0EoBLnPPEvkgZnwpIyw4IDPhwl_e-hn- -BWUoZ3sZ4wv3366N5DWPQBImLWNsIQi9VSVkgCZ_Xc7k_NjM0OSniqjqz5HrwqUyAwSzX_Nc_7kiMowCdnQFQw71r4zxQykbpVVNryiRtzSNboV7Px_cyghy-No_UNructLYtV_MBSulpb_TxwykBswlBuvyyxQhlkf- -RRVYQ_pUIJiqGkazOnEbzLBCeNy96JpHvoA1q-ZgkAUUnd9v_myUH-HIVFm_voVy8uufFVdh283bWE5iWLNQFH74Wf2ZMcxiyTd_Vb2P3n0T2Nd41k9C1iSefEMLjKq37n8I3GfWG31eWve3PEIIrveao-HiRN07qk4w7N7MaI-Skxjn1vgNuhaHy4uHdJCu-eOfniiHHyGCQgBOifNiUgIG6fgXMHTViyiXZw115BTDPbRts6m6AtJJfbGoad-IEycB-OMZlUjIRVpJW9HErhqjhvpE9o48iHeh8k1EPivEJXjcJKbLm2NR8nnNcoAOOGYYlEM9tsO1nSzHMD_se__dUKPLb60NVQ3-izucho7g06q20ltBFa3mUlZAd56XC8NAol4hSEs8IGA82jDgaC24xePutC9R4GtwsvdUgpjfQn00fY9p7e0JKcaeXpR6lDXuymKDns855fTDGKAPlgC10gRxny3mS8IecctE1IITexpiLBPsYX60P5UmFCNxBZ-2KveWmYoPmb1hXgza3Qe8E8eVWiJUmVdmxuIAc8Rl08098lA4ylvU0aRT8sQfffVip7xU1h5KmgJLzRkJYfj2peJ_lPxxFsNFCvp-VVDRDuA_VhfiowPgfkcsicKgjWKca-gLQ6JIejz3kZcdFjZ6hU-MnKC_6spJKNkLNmP5Hhcrgh_s-CQiwrCwfvvyweBm00]--></g></svg>